/* XPM */
static char *_8c10f46ded24f8af37ecfabbba2bdffkT5ERpoV7AzRyWFo[] = {
/* columns rows colors chars-per-pixel */
"64 64 61 1 ",
"  c #010102",
". c #0C0102",
"X c #00030D",
"o c #00090E",
"O c #130000",
"+ c #190000",
"@ c #010210",
"# c #250000",
"$ c #2A0000",
"% c #370000",
"& c #390000",
"* c #9B3B3C",
"= c #B63637",
"- c #B5333A",
"; c #BC343C",
": c #EC1D1F",
"> c #E71A23",
", c #ED1B24",
"< c #ED1B28",
"1 c #F01A25",
"2 c #F01928",
"3 c #C62B2F",
"4 c #CB292F",
"5 c #D6232C",
"6 c #DA222D",
"7 c #CD2731",
"8 c #C72A31",
"9 c #C92C34",
"0 c #DD2831",
"q c #7E8FA9",
"w c #6E93BD",
"e c #7791B2",
"r c #7890B2",
"t c #7092BF",
"y c #7191C0",
"u c #C3BEDD",
"i c #C7BFE6",
"p c #C7BFE8",
"a c #9DD3DF",
"s c #A7CFD9",
"d c #B5CED3",
"f c #ACD4D6",
"g c #A0D7DE",
"h c #ACD2DD",
"j c #B0D5DD",
"k c #9ED6E2",
"l c #9BD9E6",
"z c #9DD7EB",
"x c #97DAEC",
"c c #9AD9EA",
"v c #A1D5E4",
"b c #ABD5E1",
"n c #A3D5E8",
"m c #A2DAE9",
"M c #C3C1CE",
"N c #C7C3D6",
"B c #C7C2DB",
"V c #C8C3DB",
"C c #CBC8DD",
"Z c #C7C0E2",
"A c #C9C3E6",
/* pixels */
",,,,,,,,,,,,,1:1:<:,,,<<:<:8#     XuiiiiuCiiiiiiiiiiiipiiipiiipi",
",,,,,>,,:1,,,,,,<,,,,,<>,:<8#     XVViiiiiiipiiiiiiiiiiiipiiiiii",
",,,,,1:11,,,,,,,,,,>,,<,:,:9#     XViiiiiiiipiiiiiiipiiiiipiiiii",
",,,,,,1,,,1>,,1,,,,,,,<,,:<8#     @uuiiiiiiipipiiiiiiiipiiiiiiip",
",,,1:1,,,1,,1,,,,,,,<,<>:,,8#    X.uZiiiiiiiiiiiiipiiiiiiiiipiii",
"1,,,,,,,,,,>:>1,,,:,<,<<1:,3#     @VZiiiiiiiiiiiipiiiiiiiipiiiip",
",,,,,,,,,,1:,1,,,,,,:<<,::13#     XuViiiiiiipiiiiipipiiiipiiiiii",
",,,,1>,,,1,,,,,,,,,:,,<<,:,9#     XViiiiiiiipiiiiiiiiiipiipiipii",
"1,,,,,,,,,,,1,,,,,,,,,<>:,,8#    .Xuiiiiiuiipiiiipiiiiiiiiipiiip",
",,,,,1,,,,,,,,1:,,,:,,<,,:,8#     XVViiiiiiipiiiiiiiiipipiiiiiii",
",:,,:1,,1,,1,,1>,,>,,,<,,:,8#     XuZiiiiiiiiiiiiiipipiiiiiiiiii",
",1,,>1,,:>,,,,,,,,:,,,<,1:,8#     XVZiiiiiiiiiiipiiiiipiiipiiipi",
"1,,,,:1,1:,,,,,,,,,,,,<<::,8#     Xuiiiiiiiiiiiiiiipipiiipiiiiii",
">,,,,,1>1,,1,1,,1,,,,,<,1:,8#    .XVViiiiuiiiiiiiiiiiiiiiiiipipi",
",,,,1,,,>,,,,,:1,,>,,,<,,:13#     @uiiiiiiiiiiiiiiiiiiiiiiipipii",
":1,,,,,,,,,,,,>1,,<,,,,,:,18#     @Vuiiiiiiiiiiiiipipiiipiiiiiii",
"1,,<,,<,,<,<,,<,,,<,,><<,:17#     XBViiiiiiBiiiiiiiiiiiiiiiiiiii",
",1<,<,,<,<<,,<,,<::6:,<:,:17#     XViiiiiiBiBipppipiiiiiiiiiiiii",
",,,,>,,,,,,>,,,,::,<,:<:,,,8#    X@VuippiuBiiippiiiiiiiiiiiiiiii",
",>>,,,,>>,,,,>>,::><,,<<<,,3#     .NZippiiiiiippiiiiiiiiiiiiiiii",
",2,<<,,<,,<12,,,,:,<<<11<>>8$     XVuZipiiiZiiiiiiiViiiiiuiCiiiu",
"<,<,,<<,<,,<,,<,,,<<<<12<<<8$     XNVZipiiiiiiiiiiiiiuiCiiiiiiii",
",1,,1,<<121,<2,,,1111,1<,,<8$.    XNuipppiiiiiiiiiiiiiiiiiiiiiiu",
"<,1,,,<,,,21,,1,,,11::1,,<,8#     Xuiippppiiiiiiiiiiiiiiiiiiiiii",
",,,1,,,:1,,:,,,,,,11:::,:><9+ o XXXVuAppipppZAAiiippiippiiippiip",
",,,,,,,,,,,,,,,,,,1,::::,:09#    X@CVuAiZiZZiZuiiiiuiiiiiiiiiiiZ",
"<,,11<<<<11<<<<<<<22,:<,>,,8#     XMNCBBBBBBBBBNVNVVVVVVCVVVVNVV",
"666666666666666676065566005;#.. .    XXXXXXXXXXXXXXXXXXXOXX.XXXX",
"--------==-----=----=--;--=*+                                   ",
"&&%%%&%%%&%%%&%%%%%%%%%&&%&$O                                   ",
"OOOOOOOOOOOOOOOOOOOO..OOOO+O.X   o    .                         ",
"                            X     @X@X@XX@@X@@@@XXXXXX@XX@X@XX@X",
"                        X        Xqrrrrreeeeeeeeeeeeeeeeeeeeeeee",
"o    o   o             oo o ..XX Xrtwwttwyyywwwyyyyyttttwyttttwy",
"ooooooXXooooooXoooooo oooo       Xrttwttwyywwwyywyyytttyytttttyt",
"hhhhhhhhhhhhhhhhhhhhffffhjdo     Xrtttttyyyywwyyyywytttwtttttttt",
"avkvlvvkklnvlvvkvkvvkaakgbh o    Xettwttyyyywwtyywyywywytttttttt",
"lllllllzllllllzzlzllllllzajo o   Xettwttwyywwwtyyywyywywtttttttt",
"xlxlxxxlxlxllxlxzxxxxxxccmho  .  Xetwettwyytwwtywwyywywytttttttt",
"xxxxlxxxxxxxxxxxxxxxcxxxcnho     @etttttytytwwtyyyywywywttyttttt",
"llxllxlzlclclcxlzxxzzzxxznbX     @rywwttttytwwtywyttwywytttttttt",
"cczczlzlcccclzzcccxzlzzznnbX     Xryetttttytwwtyytttywywtttttttt",
"zczcxzxzczzczczcllllzzzzzvho     Xrwttttttytwwtyttttttwytttttttt",
"czczzzxzzzxzczczzlccklzzzvhoo    Xryttttttytwwtyttttttywtttytttt",
"xzxcxxlccxxczxcccccllllcczho     @rywwttttytwwtyttttttwytttttytt",
"cllclzcccczcxccccccllllclnhXo    Xrywwttttytwwyyttttttywwttttttt",
"clccxlcccccczccccccxxlcxlnho  .  @rwtwttttytwwtyttttttttyttttttt",
"xlcczxzllcllclcccclxxxxczvho     @rytwttttytwwtytttttttywytttttt",
"zlxccccccccccccczccxclcczzho    Xoetwwyyttytwwtyttyttttttttytttt",
"xzcccccccccccccccccxclccznho     oettwyyttytwwtytttttttttttttttt",
"ccccccxcczcccccxzclxcccczvhX     Xwttwtytwytwwyyttttyttttttttttt",
"cccccczccxccccczcccxcccczvho     @ttwwtttyytwwwytttttttttttttttt",
"cccccccccccccccczccxcccczvho     @eywwttttytwwtytttttttttttttttt",
"cccccccccccccccccccxccccnvho     Xetwwttttytwwyyttyttttttttttttt",
"cccccccccccczxcczccxclcczvhX     Xettwytttytwwtyttttttttttttttyt",
"cccccccccccccccczccxcccczvhX     Xettwtywtytwwtytttttttttttttttt",
"zcccccccxzcccccczlcxclccznh      @rwtwttttytwwtyttttwtywtytttttt",
"xccccccccccccccccccxccccznho     Xrytwttttytwwtyttttyttytttttttt",
"cxcccccccccxcccczccxclccznho     @rwttttttytwwtytttttttttttttttt",
"cczcccccccczcccccccxcccczvfoo    @ryttttttytwwtyttttttttttttttty",
"cccccccxzcccccccccccccccznho     Xettwttttytwwtyttttytttttwytttt",
"ccccccczxccccczczccxclcczvh      Xettwtttyytwwtyytttwtttwtyttttt",
"ccccccccccccccxccccxclcczvho     Xettwttttytwwtyttttttttyttttttt",
"cccccccccccccccczccxccllznho     Xettettttytwwtyttttttttttttttyw"
};
