/* XPM */
static char *e287e3e3aeaf477fb5a87b1e9e7dbd8eBI8mwPTVmNp3jWDb[] = {
/* columns rows colors chars-per-pixel */
"68 66 2 1 ",
"  c #FFF200",
". c white",
/* pixels */
"....................................................................",
"....................................................................",
"....................................................................",
"....................................................................",
"....................................................................",
"....................................................................",
"....................................................................",
"....................................................................",
"....................................................................",
"....................................................................",
"....................................................................",
"..............................  ....................................",
".............................    ...................................",
"............................      ..................................",
"............................      ..................................",
"............................      ..................................",
"...........................        .................................",
"...........................        .................................",
"...........................        .................................",
"..........................          ................................",
"..........................          ................................",
"..........................          ................................",
"..........................          ................................",
".........................            ...............................",
".........................            ...............................",
".........................            ...............................",
"...........                                        .................",
".........                                            ...............",
".........                                            ...............",
".........                                            ...............",
"..........                                          ................",
"...........                                        .................",
"............                                      ..................",
"..............                                  ....................",
"...............                                .....................",
"................                              ......................",
"..................                           .......................",
"...................                        .........................",
"....................                      ..........................",
"....................                      ..........................",
"....................                      ..........................",
"....................                       .........................",
"...................                        .........................",
"...................                        .........................",
"...................                        .........................",
"..................                          ........................",
"..................                          ........................",
"..................            ..            ........................",
"..................           ....            .......................",
".................           .......          .......................",
".................         ..........         .......................",
".................        ............        .......................",
".................      ................      .......................",
".................     ..................     .......................",
".................   ......................   .......................",
"....................................................................",
"....................................................................",
"....................................................................",
"....................................................................",
"....................................................................",
"....................................................................",
"....................................................................",
"....................................................................",
"....................................................................",
"....................................................................",
"...................................................................."
};
