/* XPM */
static char *f0affb366d5442a7ec00f762af9f63d7NXnYg9MRtqttwE0z[] = {
/* columns rows colors chars-per-pixel */
"64 64 233 2 ",
"   c #627F7B",
".  c #359C5B",
"X  c #3C9C5C",
"o  c #399D55",
"O  c #2F9E59",
"+  c #1EAD4C",
"@  c #1EAE45",
"#  c #1DB145",
"$  c #1EB34B",
"%  c #1FAD52",
"&  c #1EB353",
"*  c #22AD46",
"=  c #24AE4C",
"-  c #2AAC4E",
";  c #2CA54B",
":  c #32A74C",
">  c #21B346",
",  c #23B24C",
"<  c #29B24D",
"1  c #22B84C",
"2  c #2CA755",
"3  c #25AD52",
"4  c #2BAB53",
"5  c #2DA55B",
"6  c #2CAC5A",
"7  c #26A752",
"8  c #32A555",
"9  c #3AA255",
"0  c #33AB54",
"q  c #34A45B",
"w  c #3AA35C",
"e  c #32AA5B",
"r  c #3AAA5D",
"t  c #24B252",
"y  c #2AB253",
"u  c #26B358",
"i  c #29B25B",
"p  c #369C62",
"a  c #3C9C64",
"s  c #3E9B69",
"d  c #3D9866",
"f  c #2EA661",
"g  c #34A561",
"h  c #3BA263",
"j  c #3CA269",
"k  c #38A764",
"l  c #429D5E",
"z  c #49985D",
"x  c #42A25A",
"c  c #4D8E6D",
"v  c #458E68",
"b  c #568D6D",
"n  c #449566",
"m  c #439C65",
"M  c #4A9C64",
"N  c #44956B",
"B  c #4B946D",
"V  c #449B6B",
"C  c #4A9B6C",
"Z  c #4C9366",
"A  c #52946D",
"S  c #56946C",
"D  c #4D8E72",
"F  c #468F71",
"G  c #548D75",
"H  c #5B8C76",
"J  c #5B867C",
"K  c #558C7C",
"L  c #5B8B7C",
"P  c #598576",
"I  c #469472",
"U  c #4C9473",
"Y  c #459B72",
"T  c #4B9A72",
"R  c #4D9479",
"E  c #4D9879",
"W  c #529375",
"Q  c #599375",
"!  c #529974",
"~  c #54927A",
"^  c #5A927B",
"/  c #57987A",
"(  c #63847E",
")  c #618A7C",
"_  c #619377",
"`  c #42A164",
"'  c #42A26B",
"]  c #4AA368",
"[  c #4AA073",
"{  c #6B7E8C",
"}  c #647E8A",
"|  c #707D8E",
" . c #727F90",
".. c #5E8581",
"X. c #5C8B82",
"o. c #598985",
"O. c #5C9182",
"+. c #569581",
"@. c #638584",
"#. c #698485",
"$. c #628B83",
"%. c #65848B",
"&. c #6B838B",
"*. c #638B8A",
"=. c #6C898B",
"-. c #698A85",
";. c #6C8392",
":. c #679386",
">. c #7CB393",
",. c #77C692",
"<. c #74C98D",
"1. c #7DECA7",
"2. c #7EF1A8",
"3. c #82B992",
"4. c #88B7A9",
"5. c #97A8B2",
"6. c #97B8B5",
"7. c #91B6A9",
"8. c #A5B8BE",
"9. c #86D39C",
"0. c #86C899",
"q. c #86C1AB",
"w. c #92D8A8",
"e. c #94DCB6",
"r. c #9DD6BC",
"t. c #95DDBA",
"y. c #9BDCBD",
"u. c #9AD9B8",
"i. c #92D2AF",
"p. c #A2D5BD",
"a. c #A1DBBD",
"s. c #A9D9BB",
"d. c #A4CDB5",
"f. c #8BE5AC",
"g. c #84ECAB",
"h. c #8AEAAD",
"j. c #83ECA4",
"k. c #93E4AD",
"l. c #83F1AA",
"z. c #8CE4B3",
"x. c #86EAB2",
"c. c #8BEBB4",
"v. c #8EE4BB",
"b. c #86E7B4",
"n. c #92E4B4",
"m. c #9CE1B4",
"M. c #91E9B5",
"N. c #94E2BB",
"B. c #9BE2BD",
"V. c #95E9BC",
"C. c #9AEAB9",
"Z. c #82F0B3",
"A. c #A0E1BF",
"S. c #A3E7B4",
"D. c #ABBEC6",
"F. c #BEBEDC",
"G. c #B9BFE1",
"H. c #C5BEDB",
"J. c #C3BFE4",
"K. c #C8BDE4",
"L. c #9DD5C3",
"P. c #95DDC2",
"I. c #9DDBC2",
"U. c #9ED9CA",
"Y. c #A5CDC5",
"T. c #AACDC5",
"R. c #A6CDCB",
"E. c #ACCDCC",
"W. c #BEC6CE",
"Q. c #B3CDCC",
"!. c #BACBCB",
"~. c #B4CAC7",
"^. c #A4D5C4",
"/. c #ABD4C5",
"(. c #A2DBC4",
"). c #A5D4CA",
"_. c #ABD3CC",
"`. c #A4DACA",
"'. c #AAD9CB",
"]. c #AADAC4",
"[. c #B1D3CC",
"{. c #B7D4C9",
"}. c #AECDD2",
"|. c #ADCBD8",
" X c #B5C6D4",
".X c #BBC5D4",
"XX c #B4CCD3",
"oX c #BBCAD4",
"OX c #B5C6DA",
"+X c #BCC4DB",
"@X c #B5CCD9",
"#X c #BBCADB",
"$X c #ACD3D2",
"%X c #AAD7D3",
"&X c #B2D2D3",
"*X c #B6D3D8",
"=X c #95E3C1",
"-X c #9BE1C2",
";X c #9CE3C7",
":X c #A4E3C4",
">X c #B6E4CB",
",X c #BCC4E1",
"<X c #BCCBE2",
"1X c #C2C8CE",
"2X c #C3C5D3",
"3X c #C4C9D5",
"4X c #C3C3DB",
"5X c #C2C9DC",
"6X c #CAC5DD",
"7X c #C0D0D0",
"8X c #C5FEDB",
"9X c #CBFFD9",
"0X c #C4C3E3",
"qX c #C9C3E5",
"wX c #C6C6E6",
"eX c #DDFFE7",
"rX c #D6FFEC",
"tX c #DBFFEC",
"yX c #DEFFF2",
"uX c #DAFDF5",
"iX c #CBEDE3",
"pX c #E4FFED",
"aX c #E9FFEE",
"sX c #E5FFF3",
"dX c #EBFFF4",
"fX c #E4FFF8",
"gX c #ECFFFC",
"hX c #E5F3FD",
"jX c #F3FFF5",
"kX c #F4FFFC",
"lX c #FBFDFE",
"zX c #F9F6FF",
"xX c #EBF7F4",
/* pixels */
"W (.).`.n a t.y.m X h.m `.L C a v.Y 2 6 s W R._.^.T n.V U N.h r q g h p h g.h h B B.R P.U V 2 - q e 3 q @XoXU a . ' =Xs 6 , * > ",
"B r.).K M.' U U B M.n C I.y.m z.-XU j j t.L.U.G W y.V V E t.V f.m M.p c.T I a z.I.G I.+.I.t.r q X g.k a _.T.C z.;XF =XN 8 4 , $ ",
"N.-XU.R s b.t.:X^.'.^.L.N.V h m L._.p.^.$XG j g C u.m C e.(.Q `.J P.V v.$XOX(.! K $X$XR.$X).B.n B T t.;XZ C m B ).$XL.T a g 6 & ",
"W W N.V s V W X.%.XX@.].T a h.M _ T.#.XX&XL.k 6 N.T s g.' v r.$X_.`.B U @XoXL.B `.).@.&X%.}.K `.L.).*.).U V.n y.&X@X-.r.-Xp 2 6 ",
"@.`.a 8 j T E.#X+XOXXX/.F Y a M.G ).T.$.L -Xg Z.N N.p f 6 g U I.t.N :XL L (.V h.f.T K J -.XXOX@X&X&XOX#X$X^./.H P [.XX[.I.Y x.g ",
"XX).h 8 z.K oX+X+XoX=._.`.I.U B y.^ './.`.R V s V.T s g.k j F I.a V (.`.N.V X l M B I.).Q.oX+XOX} }.XXOX%Xo._./.].L ~.Q.O.-XN B ",
"&.^.m c./.@X@XXXQ.=.Y.X.o.R.@X&X(.G J [.R.).A Z m n a.a.I.^...'.n.M U t.p g ' n.e.^ }.@X+X5X<X|.X.(.I.W I Y I.L @./.H ^ ^._._./.",
"XX_.V B oXF.#._.Q.[.X.%XR.%X@X}.W B.)._.@.[.^.B.g.` p.) /.L _.'.B m N c.6 4 f.Q (.L XX+XqXF.;.$XK I.y.B V V.R U._.).I.P.K ).( _.",
"XX'.W I.OX#X).X.E.&X^.~ B B W I.V T P.`.}.}.}.K h q V y.m.Z R I.U v.Y k 4 e y._.E._.).@.0XqX .E.H G L ).y.W ).X.^.O.).U.=XI W ).",
"@.R.).$. XXXK L.%.XXJ ^.B.B A y.u.T W K ..&XR.`.h 2 h c.` X V z.;XI b.g 6 9 y.) ) _._.@.+X4X.XQ./.).XX$XH (.E.Q.@.).} $XR Y :XH ",
"%.$X$XR.=.E.H 4.oX5XlX~.~.{.gXxX6.{.).L &X( ^.B.. e 6 5 k g.5 h I =Xj j.9 h s P.;XX.@X+X#X.X#XOX&X$XXXE.H /.@X5X,X<X,X<X@.'.( /.",
"OX@X$X*.E._.).$X5X4XkXlXlXlXlXW.oXkXgXT.uX_.( ~ ' 2.2 5 j V w a W I.d r l.5 g k Y U.OX5X X@.OX@XE.@.XX&._.$.XX+XH.qXJ.J.+XXXQ./.",
"wXOX`.U _.XX&XOXlX5XOXoXlX4X#XoXlX2X1XlXlX+X+X}.I a c.M.~ ^.L /.oXQ.Q h.5 6 4 5 p =X%X|.XX*XY.+.(.^.*X} OXXX@.=.6XK.J.0X0XOX).(.",
"G.#X~ W ( oX5.OXH.wX} @X,X0X&.oXoXlXlX!.lX5X4XgX-XV C U `.)._.&XXXQ.(.V f 6 4 r g Y `.%.Q.#.$XX.^ K |.<X+X+X$XE..X0X0X0X+X#X+.U ",
"&X}.J &X+X5XhX4X2X4XoXOX+XqXqX.XOX&X) /.XX.X3XkXG t.W t.N T U I.U B A.B p f C w.B c _.@X5X4X+X#X}.@X#X<X{ }.@XOXOX+X#XOXoXT.`.U ",
"J _._.E.oX4X6XlXH.4X .OX#X+X+X#X/.K (.Q J Q..XlXS.n I V.a g.z.V m N.G y.Y =Xe.W (.^.@.XX.XH.qXJ.#X{ 4X+XXX_.*XoX@X%.$X@.E.L I.U ",
"_.$.p._ J $X0XK.K.4X0XOX_._.X.I.a m y.).Q uX+XgXl 0 h c.p h 2 w y._.{._.iX4.+.^ X.Y.$XXXoX.XqX0XOX@XwX.X) (.^.X.*XY.X.+.D U (.W ",
"_.'.G ^.).;.F.qX0X+X.X&XK T t.V q q N.G A sXoXQ.x = 2 . j g.e r (.  8.oXQ./.L.I.I.(.).../.@.,X0X| OXOXXX'.K `.L _.X.e.v.N.y.I.G ",
"L.K ).$.<XG.wX0XlX( /.W z.a ' x.l.8 j n >.gXlXgXk.q y f c.s p X B.).hXgX_.>X! m w ` (.'.B.b OX0XXX[.'.$.o.}.OX}.R.+.. r V y.I.I.",
"N.I I.%X,XqXJ.4X!.].W n.h g g . k h O <.eXkXkX].m e 4 4 h c.h g.c 4.oXgXyXB h.9 9 x ^ /.B W @X+X| E.^.L $X@X,X+X;.P.Y m t.G G W ",
"z.' z.W |.0XqX+XiXH Z l 8 : 0 0 1.j l 9XjXjXaXS.9 3 + u 6 2 6 q >.~.lXgXuXX 2 9 <.9XrX7.).L $XOX+X,X&X_.}.OXqXK.+X@X@XY.'.'.(.I.",
"a h . n <X0XH.lX~.fXtX8X<.o x o M Z 3.aXjXaXm.o 0 = i & + t 4 . rXgXjXpXn.e * : 9XaXjXfX6.E.$X&.<X@X( /._.%.+X5X0XOX@XXX_.G W T ",
"N.s r m s.zXzXH.lXlXlXfXkXdXaXaXaXjXjXlXjXaXw y = $ & t > - : 9.gXlXaXS.9 4 y 9 dXjXlXkXgXd..X<X$XL.B A (.X.L @.Q.&XB V.N B.v.n ",
"R v.w z 1XzXH.6X!.oXkXlXlXgXjXdXjXjXjXkXdXm.8 , & & & , < : X 9XkXlX:Xo 4 , = w tXjXlXlXjXkXQ._.W T B m.W I.I.I.X.).l X M.m h X ",
"t.N.C a.!.lXzX1X) a.d.fXtXsXrXtXtXtXtXrXm.r - < , t t t = 0 z pXjXgX] = y t t 6 9.dX1XlXlXkXs.C V M.I.K a.W E U.).).k.w l X q 4 ",
"B T e.W lXlXlX!.c C.Z u.! C m M l l l ` q 7 - = t , 3 = = 8 ,.dXjXsX9 , = $ & 3 l w.~.lX1XkXb M m V (.).H y.N.U O.U.A M f.h 6 3 ",
"j p ' T XXlXlX~.C g.w x e.N q 2 4 2 0 2 = , , $ > * - - u q 8XkXjXaX9 > & & $ , 4 o i.~.lXkX^.W ! w.M.B H (.C z.t.K ).(.C j l.q ",
"X c.x.F gX3XgX{.N w - 8 c.V 6 , y = u , $ , > , < * , = t 9 sXjXjXm.0 * t 3 $ $ , 0 B {.jXlX6./.) I.N T _.^.C a N.O._.O.n.. a j ",
"B.T B.(.gXlXs.G A.f.0 0 a g 6 = , , t % % t t > , , , = % g dXkXsXM 2 > = * t 3 + k a.fX3XzX1XhXOX&X_.).$XK Y b.=XK L.U a h.V.I ",
"c y.W H kX!.yXc G ! q e g.r - t > t t u u + t > > = , t & k sXlXsXl - > < < t 3 = e >.jXlX2XlXlXzX0X&.$X).U.s Y P.+.W N.a ` N ;X",
"I.a.A Q kX!.^.W D P.N.b.c.q = > > > * = t & > , > > - > $ q dXjXyX] 4 * > , = 3 y 9 s.lXjXlXlX2XlX6.OXX.D T C.e.y.G W N.` a N.B ",
"D W ^.T.oXkX'.G B.N T V . e 4 > > > - 4 , t + > , = < < = 9 dXkXyXX 2 < , = = u = 9 fXlXjX1XlX2X1X!.Q.).~ t.Z ! I.W y.T N z.M.n ",
"W L XX2XlXlXdXQ B n c.g 0 = 3 , , , = 3 t t , > > > < - = w sXdXtXX 4 $ $ , t - < x dXlXlXoX3X6XlXlX_.$.}.}.(.U I.I.W I.K y.k 7 ",
"_._.OX5X2XlXgXp.M g.q 8 4 u y - , , 3 t t > * , t = < = y w sXjXtXl 4 $ % t @ < - >.dX3XlXF.5X.XlX1X[.5.+XXX^ t.U D y.W _.I.h 6 ",
",XOX$X..XXlXXXH n x h.k g 5 - > $ $ , 3 t + = , , = = , = 8 sXkXpXM 8 t = < > - 9 9XgXkXlX4X( _.lXlXlX.XoX_.t.Y e.W A.c (.D B n.",
"#X}.K `.lX#XfX(.C x.a h c.5 y > $ $ , 3 t , , , = , + 1 , w dXjXaXz 9 6 3 > > ; z pXdXlX3X.XL I.T..X6X3XlX7.~ I N.U I.Q U n.C.Z ",
"L.:X(.J .XoX'.E v.j j g a 8 t $ $ $ , y = t , , t , $ # t r aXlXdXS M w 2 u < r 0.dXdXkXP '.H y.W d.+XlX2X1XXX6.K H _.).B ' q 2 ",
"B W r.$.kXlXE.4.s j 2.q j.e = $ # > , 4 t & , $ t & & + t w dXjXjXdXtX8X,.q w z pXjXkX>XW e.I -XB ^.oX5XlXlX#X@X_.p.'.^ z.g 6 , ",
"y.~ _.E.oXlX#X_.C q 4 2 9 8 4 , , , = 3 t $ $ $ + t = 3 4 x pXjXjXlXjXkXsXdXdXjXlXjXjX_ ` w v.R O.R.oXD.gX!.lXlXfX`.a.B V 5 u t ",
"B y...*XD..X4XoXy.h ; y 1.r 4 < , , - t t $ $ $ & t 3 3 y 9 9.pXdXjXjXkXkXjXjXlXjXjXaXu.o h U I.L.'.).).K ^./.fX{.H B z.h.g 6 3 ",
"` B _.Q.oX2X2XlX( B.8 u q q 4 4 , = 4 , = > > > , + u % u 7 8 w 9 w 9.tXtXrXyXtXtXtXu.S.M m.`.(.V V v.Y N V C B s.) T V g q g g ",
"z.B $.XX( ~.lX3XoX/.' 6 2.5 7 u = = 3 t > = * , 1 + t + & & > t = y 8 w X ` X l X X l l f.B /.J z.p s Y z.j g.s p.s.U z.a g.C z.",
").X.%.[.~ ).*XlXgX7.N.a j w 6 3 t y 3 3 > < < < > , $ t $ $ 1 # > = 4 y i 4 - : e 2 6 6 e V ^.L n ' P.K W V.j x.y.`.`.I.T f.n t.",
"$X}.E.'.D U.gX1XlXkX/.4.S k.o q 8 6 4 6 0 ; ; ; - = y = t $ # # , = = , , , < > t + u 4 7 h ^.'.B.C U.`.H i.s h N F ).^ N N.:Xc ",
"%.$XP G `._.5XlX.XlXoXkXkXdX9X0.M M m X x x ` x e 4 = > , , < = 4 3 = t t = , * % i 6 2.8 ` ^ ).~ T I U p.:Xn j V V I.P.I.I.I.U ",
"@X).y.:XL XX.X.XkXlX.X2XjXjXgXdXpXtXtXtXtXtXuX8X<.r 3 > $ 3 = 4 3 3 4 4 3 3 - - i % f q w f.(.).^.y.C N./.J B M.s N.~ ..*.L `.W ",
"&.Y.C U E.OXQ._.P _.gX~.dXdXkXlXkXjXjXkXjXdXkXfXrXM - = u u e e t 3 e 8 4 4 0 ; 4 u 3 7 e h d C -XB e.Q XXoX&X(.I.~ XXOX+X*XG W ",
"~._.I.G &XXX-.J L ).s.b b i.sXgXfXkXjXaXaXkXgX[.].n.w e 5 8 g g.w q g.w 5 q j.0 4 7 6 6 e 1.M.Z t.W (.) .X+XOX%.$Xo.+X0XqX Xp.N.",
"XXoXXX}.$._.Q.$X$XJ H S f.` x m y.b m.x o ` P.H ~ y.n.T N v.a m a./.W n.z.V h g.r k g g 2.j V y.S H XX#X.X+X#X0X+X@X#X;..X&XE w ",
"&X} #X@XJ '.@.XXXX%Xy.n.C X 8 e N.T l 9 y ; d -Xt.B P.U R N.m m.E.&X^.U U V.m m z.N M.V V N y.W ^.E.5X+X;.OX+X0XqXF.#XXXXXJ B.V ",
"%.}.&.XXE.*.%.XX*X).N.N (.y.a h N.R n.X 4 4 g.j X C T N.V V z.t.Q G I.W s v.e.W L.).^.^.`.L.s./.@X<X|.@X&.XXoX.X4X5X.X!.Q._.).`.",
"%X).E.&X$XR.$X}.}.X.W R L U.t.Y =XI ^ N.r 6 5 9 h g.C z.a h.[ Y z.t.W P.j h B r.:.Y.[.J K I.G L }.@Xo.%XE.&XQ.#.XXoX#.T.@._.X.^.",
"R ^ Q.~.'.P @.}.&X@._._.K U.%XP.V v.U.).N.a f k c.m a j w X d x.g j U.P.g k N / c p.H a.Y Y -XU R E W L.$X$XH `.I.K `.o.*.U.F C.",
"L.^.L s.(.^ )._.).[.OX{ $XK %XG C m P.K I.T a s t.B M.m k.` V j 5 g P./ s p N.e.B B.y.! s v.I V.V c.t.O.@.&X_.G `.o.o.%XU.U.C X ",
"@X_.C m `.J '.K (.H  X5X5XQ.B m l j.k j V I.`.L ~ u.-XI t.W t.V h w B y.N.=X=XU s m C r.).o.U.B a C ^.Q.+X+XXX#.#X@X@X_.I.e.n ` ",
"oX_.m a (.E.K (.A `.Q.5X.X&XZ j.w h w X V y.%XE._.L R I.W I.U N.z.m M e.W R I.U I N.z.U %X$XK y.N.W L oX0X,X+X@XOX@XXXJ Q ! z.m ",
"+.I.N.B ^.[._./.I.I.R.&XX.I.z.a h m B.u.C C Y.@XoXOXR N.C B V m T V.a M B y.~ L.&X_.Z C ).%.^.~ L ).$X|.0X0XOX@._.L.a.G '.^.y.B ",
"P.R ;XK ) /.[.L K ^ =.E.).R V a a z.G ^.n.T R }.OX|.I.V M.M.a c.t.U ` f.C m.N -XR.&XC n.).$X`.K _.$XXX .+X+X}.`.~ ^ G (.^.L _.H ",
"P.R u.I.G (.^.).( Q.+XoX*XL.V.j h b.`.%XU N T R ;.$XI h . h.m V U N.a h c.a a V Y N V.=X).$XG Q _.oX,XJ.wX#X/.H ) /._.L.! I.|.<X",
"o.`.~ D ! I.K o.&XXXOXOX&.&XF m h ' P E.).P.a c.I.(.N.a j h f.V c y.M.d ' a g.r h c.d N ^ ^.p.p._.{ J.J.0X#X_.H T.[.$X~ V V |.,X",
"<X|.p.Q e.G %Xo.XX_.$.'.$XR.'.W V V `.@.OX%Xh 0 8 m U `.b.p V I.`.).I.B e.n.g.h V n j a M u.) &XQ. X0X0X+XXX  [.).K K U d V (._.",
"+XoX#.p.y.W ).%X..%Xc a.( XXR.).U t._.*X@X_.m 8 8 q N.P.V V V.I L.L `.H W U a j N.N.z.] m / R.E.$.E.@XOXR.*._._.+.P.;XB.f.` N U ",
"X.Y.5XXXH -XD `.+.L.W (._.&XXX_.).%X}...W t.s.y.I.N.a h V N.d V Y T '.Y._.H N c.-Xy.B u.^.$.$X%XH ^.I.I.T d +.U.W F B.n h.w h.s ",
"! _.@X#X(.A y.D +.L.W (.E.&.}.%.%.E.XX).B T ^.@.$XW q 0 C t.M j.x.Y /.%.&X).Y s R G y.^ $X}.o.).(.U E V h b.P.R y.y.u.A a 9 g g "
};
