/* XPM */
static char *_a83514073ed47fffd8aa38b7c500478fYpZBkmwhh708P93[] = {
/* columns rows colors chars-per-pixel */
"64 64 145 2 ",
"   c #010004",
".  c #0E0006",
"X  c #02000B",
"o  c #0B020D",
"O  c #0C0A0D",
"+  c #10000E",
"@  c #040111",
"#  c #0A0514",
"$  c #060910",
"%  c #0C0A11",
"&  c #070219",
"*  c #08041B",
"=  c #0D0918",
"-  c #13061B",
";  c #120E1E",
":  c #14131C",
">  c #1C1A1F",
",  c #320D1E",
"<  c #140F22",
"1  c #151024",
"2  c #1C1626",
"3  c #161A26",
"4  c #161128",
"5  c #1A142C",
"6  c #20172A",
"7  c #312B45",
"8  c #462844",
"9  c #443F56",
"0  c #483F52",
"q  c #44414C",
"w  c #464252",
"e  c #4E4C51",
"r  c #514E5D",
"t  c #54535E",
"y  c #4F4C62",
"u  c #524E62",
"i  c #545165",
"p  c #5C5265",
"a  c #555168",
"s  c #745D79",
"d  c #646174",
"f  c #696577",
"g  c #6C6976",
"h  c #69657A",
"j  c #6D687E",
"k  c #726D83",
"l  c #746E88",
"z  c #757380",
"x  c #787387",
"c  c #7C7A85",
"v  c #777289",
"b  c #7D758C",
"n  c #7E7B8B",
"m  c #7A7591",
"M  c #80778C",
"N  c #8E718D",
"B  c #A47D8F",
"V  c #898795",
"C  c #8C8A94",
"Z  c #8C879E",
"A  c #8C8B9F",
"S  c #918F95",
"D  c #928E9D",
"F  c #A0829C",
"G  c #8C86A2",
"H  c #8F89A5",
"J  c #938EA4",
"K  c #918AA9",
"L  c #BEBACC",
"P  c #BDB7D3",
"I  c #BEB6DD",
"U  c #BFBAD8",
"Y  c #C1BEC7",
"T  c #C4BBCF",
"R  c #CEBBCE",
"E  c #D7B0CF",
"W  c #DFB7CF",
"Q  c #C3BDD5",
"!  c #CBBCD5",
"~  c #C2B6DA",
"^  c #C4BDDD",
"/  c #CCBDDD",
"(  c #D6B6D4",
")  c #DBB5D4",
"_  c #D4BCD5",
"`  c #DCB9D6",
"'  c #D6B6DB",
"]  c #DDB7DA",
"[  c #D4BBDD",
"{  c #DAB9DB",
"}  c #EFAFC9",
"|  c #F6ACC7",
" . c #FEAEC6",
".. c #F5AECB",
"X. c #FDAECB",
"o. c #EEB3C7",
"O. c #E5B5CE",
"+. c #EDB4CE",
"@. c #F5B3C7",
"#. c #FBB0C6",
"$. c #F5B2CD",
"%. c #FAB1CB",
"&. c #EDAED1",
"*. c #F6AFD3",
"=. c #FAAED2",
"-. c #F6ADDB",
";. c #FAABD8",
":. c #E4B6D5",
">. c #EBB4D4",
",. c #E3B8D4",
"<. c #EBB9D4",
"1. c #E2B6DA",
"2. c #EBB3D9",
"3. c #E2B9DA",
"4. c #ECB8DB",
"5. c #F3B2D2",
"6. c #FAB1D2",
"7. c #F6B8D7",
"8. c #F1B2D8",
"9. c #FCB4D8",
"0. c #C6BEE5",
"q. c #CBBEE4",
"w. c #C7BFE9",
"e. c #CABDE9",
"r. c #DBB7E1",
"t. c #D3BBE2",
"y. c #D9B9E1",
"u. c #E0B5E0",
"i. c #EAB2E1",
"p. c #BFC1E4",
"a. c #C4C1CC",
"s. c #C6C2D4",
"d. c #C8C4D6",
"f. c #CECBD2",
"g. c #C6C1DC",
"h. c #CAC3DC",
"j. c #CDC8DC",
"k. c #D4C0DC",
"l. c #C6C1E3",
"z. c #C9C2E5",
"x. c #CECAE5",
"c. c #C4C1E9",
"v. c #CAC2EA",
"b. c #D0C0E7",
"n. c #CAC3F0",
/* pixels */
"q.q.q.g.q.g.l.l.l.l.e.q.t.e.w.p.c.l.q.t.] 1.,.,.:.>.$...X.X.X.#.#.#.#. .X.X.X.X.X.X.X.#...#.%.X.X. .#.X.X.X.-.r.t.w.l.l./ / l.c.",
"0.l.l.q.q.l.l.l.l.l.e.e.q.q.c.c.l.q.{ { 1.<.>.>.>.$.%...X. .#. .#.#.X...X.%.=.=.5.$.%.%.6.%.6...X.%.#.%.X.X.*.1.[ 0.l.l.q.q.l.l.",
"c.c.q.q.q.l.l.c.w.w.e.e.e.l.p.l./ { 1.>.*.=...$.6.%.%.X. . . .#.%.$.5.5.>.<.<.>.>.>.>.>.5.5.5.*.6.5.$.+.%.=.*.2./ l.c.l.q.e.c.l.",
"c.w.e.e.q.w.l.c.l.w.w.e.e.q.l./ ] :.*.*.=.$.5.$.$...#.X.#.#.#.%.+.>.>.:.1.] { ' [ ` { ,.,.1.>.>.5.$.$.$...X.=.4.[ g.l.q.t.e.l.p.",
"w.w.e.q.e.q.l.l.w.c.c.e.q./ [ ,.>.$.6.*.5.,.` ) O.+.X.X.X.X.$.>.] { t.[ t.q./ q.q.q.q.q.t.[ t.{ >.*.X.X.X.X.%.$.,.[ t.e.e.w.c.p.",
"e.e.e.q.q.q.l.l.c.c.e.q.t.{ ,.>.$.*.5.5.:.` ` _ ,.$.=.X.=.*.:.{ t.q.q.q.q.w.w.0.c.w.q.q.w.q.q.[ { :.5...X. .X.@.>.1.r.t.w.c.c.c.",
"e.e.w.l.g.l.0.l.c.w.q.t.] >.5.$.*.5.>.1.` ` ,.+.$.$.=.6.2.1.t.e.q.w.q.w.w.e.e.q.e.e.q.0.w.l.l.q./ { ,.>.%. . .#.$.:.t.e.w.c.c.l.",
"e.w.l.l.l.w.0.0.l.q.[ ] >.5.$.6.>.2.1.,.,.,.5.5.5.5.5.1.] t.e.w.c.l.0.w.q.q.q.q.l.q.e.w.w.l.l.l.q./ [ ) >.%. . ...>.{ q.l.l.q.q.",
"l.l.w.e.w.q.l.0.q.[ ] 2.5.$.$.:.{ { ] ,.5.6.=.=.*.1.] t.t.q.c.c.w.q.l.q.z.l./ l.l.l.l.l.q.0.0.0.e.e.l.k.:.+.%.#.X.5.] / / l.g.g.",
"l.l.q.w.e.w.w.w.[ { >.5.5.*.+.,.` ] >.$...X.X.5.>.1.{ t.[ z.g.g.q.q./ q.h.! z./ / q.q.q.q./ / t.q.t.e.[ ] >.$.%...5.:.] [ [ h.[ ",
"0.l.e.e.c.w.l.q.[ ,.5.=.*.5.:.O.+.+.%.%.#...$.+.>.] 1.] ] ` ) ) ] u.3.) ) F 8 N { [ ] ] { ] ] { ] { ` ` ` O.$.@.X.%.5.>.1.] ] ] ",
"0.q.e.w.w.w.q./ ] >.=.=.....>.+.@.#.#. .#.%.$.>.>.>.>.>.>.>.+.>.>.>.>.4.4.<.O.<.:.>.2.<.2.>.>.>.:.:.,.<.O.O.$...#.X.X.5.>.>.>.4.",
"0.0.w.q.l.q.[ { >.*.=.X.=.=.=.%.%.#.#.#.#.%.$.$...@.$.$.$.$...=.;.9...6.| %.%.%...X.6.=.=.=.%.%.%.$.$.5.5.5.X.X.X.X.X.X...;.;.;.",
"q./ q./ [ { ` <.$.X.X.X.X.X.X.6.+.+.$.$.5.5.5.5.>.>.+.>.>.<.5.8.8.&.7.$.$.o.| $.*.5.5.5.>.5.5.$.5.>.5.>.5.8.5.*.@.X. . .X.X.6.;.",
"/ z.[ ] 1.>.5...X.#. .#.#.X.%.$.,.{ t.[ t.r.y.y.t.[ [ [ [ t.y.t.[ [ ! _ _ o + # _ [ [ { [ [ [ [ [ { [ [ t.t.[ { :.+.#. .X.#.>.,.",
"{ ] ,.>.5.=.X.X. .#. .%.#.@.+.` t.t.e.q.e.e.t.e.e.c.l.c.w.q.q.q.l.z.g.g.s.X X X g.g.g.l.0.g.g.l.q.h.q.l.q.e.l.l.{ :.%. . .#.+.,.",
"+.$.$.%.$.5.X.X. .#.| X.%.o._ / q.q.l.q.q.q.w.q.e.l.e.w.e.c.q.c.^ l.0.0.j.X   X g./ l.l.w.g.l.l.q./ l.l.c.l.c.e.[ ,.$.%. .#.6.5.",
"%.@.@.$.>.>.X.X.#.#.=...@.F b l.l.0.w.w.l.w.w.w.w.w.c.w.l.w.e.l.l.0.v.v.k o X X g.g.0.q.0.0.w.e.q.q.g.l.l.l.l.l.[ ] >.$.X. .%.%.",
"6.5.>.1.{ ` *. .#.#.6.5., . - h.l.w.w.w.q.l.l.w.l.w.0.w.q.w.q.0.l.q.v.^ ;   X w g.w.0.l.l.q.w.e.e.q.c.l.l.c.q.e.t.] <.$.X.X.X.%.",
"4.2.{ [ [ ] .. .#.%.<.E .   . h./ l.q.l.l.0.w.w.q.l.0.l.l.w.l.0.l.w.q.z.X   X L l.c.l.q.0.l.w.w.w.w.l.l.c.c.e.e.e.[ ,.>.%. .X.%.",
"t.t.t.[ 1.5...X.%.5.' h.    X ! l.w.e.w.w.l.w.w.0.l.q.q.q.g.l.l.0.l.v.h.X     d.q.w.l.w.l.w.w.w.e.e.l.l.c.l.e.e.e.[ { >.%.X.X.#.",
"w.e.[ ` 5...%.X.*.1.b.g.X   X d.l.w.l.w.w.q.l.w.0.w.l.w.w.l.q.0.0.^ ^ h.X     h.0.e.w.w.q.w.l.q.e.c.q.0.l.c.t.e.q.l.[ ,.*.X.X.@.",
"e.r.1.5.#.X.X.8.] t.0.^ X   @ ^ l.q.q.c.l.0.q.l.q.l.w.l.w.0.w.w.z.z.l.^ X     d.l.w.w.e.l.w.l.0.l.q.0.l.l.l.e.e.v.0.q.{ 8.%.X.#.",
"r.1.5.%.#.#.X.4.q.p.l.x.X   X h.l.w.w.l.q.w.w.w.l.0.w.q.w.l.w.l.w.w.g.h.X   X d.l.w.w.w.q.^ h.h.l.l.g.l.l.l.e.e.w.l.q.{ 5...#.#.",
"8.5.$...#.%.5.] q.p.l.g.o   @ q.l.w.q.l.w.l.q.w.w.q.c.w.w.w.w.w.0.q.l.l X X X d.g.q.q.0.l.g.Q s.d.g.h.^ g.0.q.w.c.c.l.[ >.6.%.#.",
"X.X.5.5.X...>.{ / p.c.g.  o @ g.g.q.w.w.w.l.c.w.v.w.0.v.e.0.w.e.v.^ 0.< X   9 j.z.l.l.J 4 X @ X X 5 b h.g.^ q.q.c.c.l./ 1.;.%. .",
"@.$.,.:.$.6.>.] / 0.l.g.    @ s.g.0.l.q.w.q.q.l.w.w.w.w.w.v.q.e.w.l.l.@ X   T ^ l.z.Q ; @ X X X X X = / ^ l.q.q.c.p.l./ 1.8.%.X.",
"5.O.` ` $.%.>.] q.q.q.h.    X s.l.0.l.0.w.w.l.0.w.0.e.w.v.l.w.l.w.^ d.@   X s.^ ^ g.D     X X X   X X h.g.0.0.w.c.l.l.q.1.>.%.#.",
"3.{ [ _ +.@.,.{ t.e.q.!       s.l.l.l.w.w.w.w.0.^ l.0.l.g.^ l.l.l.g.x X     h.g.z.h.:       a.S     @ / 0.w.w.w.e.l.l./ ] <.5.X.",
"y.t./ [ $.@.>.{ e.w.e.!     X g.l.q.q.w.q.l.l.q.l.0.z.^ ^ g.^ g.h.Z = X   q z.G 7 M       e f.O     X g.q.e.w.e.c.l.q./ ] >...X.",
"e.e.e.[ >.%.>.] t.w.0.h.    X g.w.c.w.w.w.0.l.g.l.^ m 5 5 b g.h.d.< X X X a.T 4 # @       S 2       p ~ n.n.w.w.e.q.q.[ { >.%.X.",
"v.w.e.y.5.$.>.{ e.w.0.Q     X g.l.q.q.c.l.0.q.l./ x @ X @ * c d.d.X X X r s.j.& X         O       X Q z.c.I n.c.e.q.q.h.{ ,.%.X.",
"w.w.w.[ 5.%.:.` q.q.l.g.    @ / q.l.z.0.l.w.e.0.s.:       X $ s.d.X   X g.l.g.h X X           X X a s.l.l.v.0.c.w.e.^ / ( <.@.#.",
"q.q.w.t.>.$.>.{ t.v.0.g.X X X / l.q.l.l.0.0.v.0.H         X X f.C     @ g.l.l.l.#           X y l.U b.q.^ z.0.0.e.w.q.z.{ O.%.#.",
"e.q.w.[ >.X.>.` t.0.v.g.X   X h.q.v.l.q.0.0.l.K ;             c :     X g.l.z.l.f X       X y g.^ l.h.z.w.c.w.v.v.w.c.q.' 4.=.X.",
"e.q.q.[ >.@.>.` t.e.v.j.    X s.0.w.0.l.z.z.~ < X X   t $     X       t g.l.l.l.h.s.  X X L x.g.l.q.e.q.w.w.c.0.w.w.0.e.{ 2.;.X.",
"q.q.l.[ +.$.<.,.y.e.e.~ %     g g.l.q.0.l.^ D X X X u s.g X X       X z.l.v.w.v.^ s.X     f.g.l.^ v.e.q.n.w.0.c.w.v.c./ y.:.| X.",
"q.q.l.[ >.$.+.,.t.0.e.q.p     # l.w.0.w.l.J %     X g.s.s.$   X   X @ l.I w.n.w.g.h.X   X d.^ z.l.v.0.e.p.c.^ l.q.^ ^ / ` >.%. .",
"l.q.q.[ >.$.$.:.t.w.0.e.T     X b l.l.^ s.1     X a c.g.g.h X X   o 9 ^ l.w.w.w.l.^ X   X h.^ l.q.w.w.l.c.g.A 2 5 M h._ ) :.@.%.",
"l.l.l.t.>.5.$.>.q.v.w.q.! o   X * ^ z.^ S       t Q l.v.g.h.d X X X T z.l.w.w.e.w.0.@ X X s.g./ l.l.l.g.A 3 X     % d._ ` >.$.#.",
"l.l.q.q.1.5.$.>./ c.c.w.l.f   X @ g.g.s.:       h.~ v.l.l.g.g.j X u l.l.z.g.l.e.c.l.X X X 2 c d.! d.d.c $       X u / [ 1.>...%.",
"l.l.w.t.1.5...5.[ v.0.w./ d.X X @ s.j.V       t g.l.l.w.q.0.z.~ g.^ v.^ ^ l.q.c.q.l.# X X     X X X         X X u g.^ t.) -.6.%.",
"l.l.q.t.] 2.=.5.{ ^ e.c.I j.X   @ j f.:       s.l.w.w.e.w.w.0.e.v.w.0.e.0.q.w.w.0.q.h X X       X o   o X X y l.c.c.q.' 4.7.X. .",
"q.q.e.t.y.2.%.%.] / l.w.l.^ # X X $ S       r g.w.0.q.l.0.w.w.0.0.0.0.w.v.w.w.w.l.l.Q s.g X X X X X o X w s.g.z.p.v.v.{ 2...|  .",
"q.q.e.t.y.1.%.%.:.[ / 0.v.z.f X     O     X g.z.w.l.w.w.w.w.w.v.w.0.z.g.l.0.w.w.0.l.l.g.g.Q 0.g.z.g./ ! ^ g.l.c.v.~ _ 3.5.6.$.+.",
"{ [ t.q.t.1.5.@.>.3./ w.l.^ s.X         X i l.l.w.l.0.w.v.w.0.^ e.0.^ ^ q.v.w.w.w.q.l.g.^ x.v.w.l.^ z.^ / 0.l.q.q.[ 3.>...5.<.:.",
"{ [ t.q.t.3.$.#.5.:.[ l.v.z.s.X         y g.z.c.0.0.v.l.0.w.v.w.0.w.0.l.w.e.w.w.l.0.w.0.e.w.0.w.l.v.l.z.l.v.w.e.[ { >.$...5.,.{ ",
"{ { q.v.t.{ O.$.| <.` [ / z.d.X       X g.l.c.v.q.0.0.w.0.w.0.w.w.e.0.^ c.w.w.w.l.q.0.0.v.e.w.w.c.l.l./ q.q.q.t.] 4.$.%.6.&.{ / ",
"3.r.q.q.e.q.1.>.| 6.<.( k.z.Q X     X r ^ l.w.w.w.0.w.0.e.w.q.e.e.e.0.0.c.c.p.c.l.v.l.q.w.e.e.q.q.q.z./ / [ y.3.>.%.%.$.5.u.t.q.",
"4.1.q.w.c.q.[ 1.5.| 6.>.( k.! - o   X g.g.0.v.c.w.w.q.0.q.q.e.e.e.q.q.w.l.l.c.0.c.l.e.e.t.t.t.{ { t.q./ [ ` 3.5.%.X.#.=.2.] [ e.",
"+.,.[ ^ w.w.q.{ 7.....5.+.:.] s o X r g.l.q.e.w.e.l.l.l.q.w.e.q.q.q.q.q.0.q.0.w.l.0.q.[ ] 1.>.5.*.2.y.[ ` >.$.%.=.X.X.@.>.) [ q.",
"$.+.{ l.l.w.l.[ :.7.| $.5.+.4.) _ R _ [ / q.t.e.e.q./ q./ q.e.e.q.q.t.t.t.q.t.q.q.[ [ { >.5.%.X.X.6.:.] >.5.6.X.X.X.X.$.O.` { t.",
"=.>.{ q.q.l.q.q.[ 3.>.5.@.%.| 7.<.W ` ( 1.] ] { ] { ` { { ' { y.{ ] { { { { { ] ] 1.,.>.$.$.@.#. .X.$.+.$.6.;.=.+.+.$.5.,.] 1.2.",
"X.5.{ / q.q.g.l.t.t.] 1.O.$...| o.$.+.7.>.2.2.8.>.>.>.>.>.:.>.>.>.1.:.>.>.>.>.>.>.5.+.$.@. .#. . .#.@.$.$.8.2.2.,.O.5.5.3.:.>.5.",
"X...1.[ q.0.^ 0.c.z.t.t.{ 1.:.7.%.#.| X.6...%.%.X.@.%.#.%.@.$.$.$.%...$.@.%.@.%.@.X.X.X. . . . . .#.5.,.` { t.y.` >.5.$.>.>.$.$.",
" .X.>.,.{ [ / q.q.t.t.t.t.{ 1.:.X.X.#. .X.X.%. . .#. .#. . .X.X.X.X.X. . . . . . . .X. . .X.X.X. .$.2.{ [ g.l.l.[ :.$.X.%.$.5.@.",
" . .%.6.*.8.1.` ] 1.] ] 1.] 1.:.$.%.%.%.%.X.#.#.#. . . . . . .X.X.X.X. . . . .X.X.X.X.X.=.X.X.%.@.+.{ q.g.l.l.g.[ :.>.X...6.>.>.",
"#.#.X.#.X.=.>.>.>.5.>.>.2.2.>.&.6.%...X.X.%.X.#. . . . . .X.X. .X.X. .X. . . .X.X.X.X.=.=.X...X.$.+.] [ [ [ h._ ] >.$...$.5.>.1.",
">.>.$.@.X.X.$.>.%.@.@.@.$.8.5.X.6.....X.X.#.X.X.X.X.X.X.X.X.X.X.X. . .#.X.X.X.X.=.X.X.X.X. . . .X...;.*.>.<.,.:.>.%.5.5.2.r.y.t.",
"r.] :.@.#. .$.$.$.$.5.+.+.>.5.5.8.5.5.>.5.5.8.5.5.$.5.$.*.5.5.5.$.$.5.5...5.5.*.*.>.5.5...X.X.%.%.=.=.=.X.=.5.8.%.%.$.>.y.e.e.t.",
"e.y.,.$. .%.+.:.` [ _ [ [ h.[ t.[ t.[ [ [ [ [ [ [ [ r.[ { t.{ [ / [ [ [ [ [ t.t./ [ [ { 1.1.>.<.>.>.5.*.X.X.X.%.$.5.` [ q.q.q.q.",
"e.e.{ :.$.%.$.:.[ [ l.g.g.l.q.e.w.l.w.q.0.0.q.q.q.q.q.w.w.l.w.0.l.l.q.w.q.q.w.q.c.l.l.l.t.[ y.] { 1.>.*.X. ...6.5.:._ / q.0.q.0.",
"e.e.q.] 5...=.*.2.1.t.q.e.e.q.e.q.l.l.l.q.0.q.l.w.w.w.w.l.l.l.l.w.e.e.l.w.l.0.l.l.w.0.w.q.q.l./ [ ] *.*.#.@...>.1.t.q.q.w.w.0.g.",
"q./ l.[ >.=.=.;.-.i.t.q.q.t.e.e.q.l.0.l.0.l.l.0.w.w.w.w.c.l.c.c.e.e.q.0.w.l./ l.q.q.q.l.w.c.p.g.h.{ *.X.%.@...>.{ t.e.w.w.c.l.p."
};
